# xmcd CD database file
#
# Track frame offsets:
#	150
#	22322
#	35382
#	71635
#	106572
#	130537
#	154530
#	172767
#	213282
#	226702
#
# Disc length: 3466 seconds
#
# Revision: 0
# Processed by: cddbd v1.5.1PL0 Copyright (c) Steve Scherf et al.
# Submitted via: CDex 1.51
#
DISCID=6e0d880a
DTITLE=Water Garden - Water Garden
DYEAR=1900
DGENRE=New Age
TTITLE0=Heavenly Water
TTITLE1=Pandas by Moonlight
TTITLE2=Deep Roots by a Shallow Pond
TTITLE3=Stillness Under the Bo Tree
TTITLE4=Hymn to Quan Yin
TTITLE5=Hidden Cavern of Jade
TTITLE6=Bubbling Brook
TTITLE7=Bamboo in Spring
TTITLE8=Oriental Garden
TTITLE9=Lotus Rain
EXTD=
EXTT0=
EXTT1=
EXTT2=
EXTT3=
EXTT4=
EXTT5=
EXTT6=
EXTT7=
EXTT8=
EXTT9=
PLAYORDER=
